<svg width="89" height="21" viewBox="0 0 89 21" fill="none" xmlns="http://www.w3.org/2000/svg">
<path d="M0.886484 8.02C0.886484 6.66 1.19982 5.44 1.82648 4.36C2.46648 3.28 3.32648 2.44 4.40648 1.84C5.49982 1.22667 6.69315 0.919999 7.98648 0.919999C9.46648 0.919999 10.7798 1.28667 11.9265 2.02C13.0865 2.74 13.9265 3.76667 14.4465 5.1H11.7065C11.3465 4.36667 10.8465 3.82 10.2065 3.46C9.56648 3.1 8.82648 2.92 7.98648 2.92C7.06648 2.92 6.24648 3.12667 5.52648 3.54C4.80648 3.95333 4.23982 4.54667 3.82648 5.32C3.42648 6.09333 3.22648 6.99333 3.22648 8.02C3.22648 9.04667 3.42648 9.94667 3.82648 10.72C4.23982 11.4933 4.80648 12.0933 5.52648 12.52C6.24648 12.9333 7.06648 13.14 7.98648 13.14C8.82648 13.14 9.56648 12.96 10.2065 12.6C10.8465 12.24 11.3465 11.6933 11.7065 10.96H14.4465C13.9265 12.2933 13.0865 13.32 11.9265 14.04C10.7798 14.76 9.46648 15.12 7.98648 15.12C6.67982 15.12 5.48648 14.82 4.40648 14.22C3.32648 13.6067 2.46648 12.76 1.82648 11.68C1.19982 10.6 0.886484 9.38 0.886484 8.02ZM22.8152 3.8C23.6552 3.8 24.4019 3.98 25.0552 4.34C25.7219 4.7 26.2419 5.23333 26.6152 5.94C27.0019 6.64667 27.1952 7.5 27.1952 8.5V15H24.9352V8.84C24.9352 7.85333 24.6886 7.1 24.1952 6.58C23.7019 6.04667 23.0286 5.78 22.1752 5.78C21.3219 5.78 20.6419 6.04667 20.1352 6.58C19.6419 7.1 19.3952 7.85333 19.3952 8.84V15H17.1152V0.2H19.3952V5.26C19.7819 4.79333 20.2686 4.43333 20.8552 4.18C21.4552 3.92667 22.1086 3.8 22.8152 3.8ZM29.3435 9.44C29.3435 8.33333 29.5702 7.35333 30.0235 6.5C30.4902 5.64667 31.1168 4.98667 31.9035 4.52C32.7035 4.04 33.5835 3.8 34.5435 3.8C35.4102 3.8 36.1635 3.97333 36.8035 4.32C37.4568 4.65333 37.9768 5.07333 38.3635 5.58V3.98H40.6635V15H38.3635V13.36C37.9768 13.88 37.4502 14.3133 36.7835 14.66C36.1168 15.0067 35.3568 15.18 34.5035 15.18C33.5568 15.18 32.6902 14.94 31.9035 14.46C31.1168 13.9667 30.4902 13.2867 30.0235 12.42C29.5702 11.54 29.3435 10.5467 29.3435 9.44ZM38.3635 9.48C38.3635 8.72 38.2035 8.06 37.8835 7.5C37.5768 6.94 37.1702 6.51333 36.6635 6.22C36.1568 5.92667 35.6102 5.78 35.0235 5.78C34.4368 5.78 33.8902 5.92667 33.3835 6.22C32.8768 6.5 32.4635 6.92 32.1435 7.48C31.8368 8.02667 31.6835 8.68 31.6835 9.44C31.6835 10.2 31.8368 10.8667 32.1435 11.44C32.4635 12.0133 32.8768 12.4533 33.3835 12.76C33.9035 13.0533 34.4502 13.2 35.0235 13.2C35.6102 13.2 36.1568 13.0533 36.6635 12.76C37.1702 12.4667 37.5768 12.04 37.8835 11.48C38.2035 10.9067 38.3635 10.24 38.3635 9.48ZM46.3182 5.84V11.94C46.3182 12.3533 46.4115 12.6533 46.5982 12.84C46.7982 13.0133 47.1315 13.1 47.5982 13.1H48.9982V15H47.1982C46.1715 15 45.3849 14.76 44.8382 14.28C44.2915 13.8 44.0182 13.02 44.0182 11.94V5.84H42.7182V3.98H44.0182V1.24H46.3182V3.98H48.9982V5.84H46.3182ZM50.7996 9.6C50.7996 8.46667 51.0196 7.48667 51.4596 6.66C51.8996 5.82 52.5196 5.18 53.3196 4.74C54.1196 4.28667 55.0329 4.06 56.0596 4.06C57.2996 4.06 58.3463 4.38667 59.1996 5.04C60.0663 5.68 60.6463 6.5 60.9396 7.5V4.2H61.3196V15H60.9396V11.7C60.6463 12.7 60.0663 13.5267 59.1996 14.18C58.3463 14.82 57.2996 15.14 56.0596 15.14C55.0329 15.14 54.1196 14.92 53.3196 14.48C52.5196 14.0267 51.8996 13.3867 51.4596 12.56C51.0196 11.72 50.7996 10.7333 50.7996 9.6ZM60.9396 9.6C60.9396 8.57333 60.7263 7.67333 60.2996 6.9C59.8863 6.11333 59.3063 5.50667 58.5596 5.08C57.8263 4.64 56.9929 4.42 56.0596 4.42C55.0729 4.42 54.2129 4.62667 53.4796 5.04C52.7596 5.45333 52.1996 6.05333 51.7996 6.84C51.3996 7.61333 51.1996 8.53333 51.1996 9.6C51.1996 10.6667 51.3996 11.5933 51.7996 12.38C52.1996 13.1533 52.7596 13.7467 53.4796 14.16C54.2129 14.5733 55.0729 14.78 56.0596 14.78C56.9929 14.78 57.8263 14.5667 58.5596 14.14C59.3063 13.7 59.8863 13.0933 60.2996 12.32C60.7263 11.5333 60.9396 10.6267 60.9396 9.6ZM65.0976 7.5C65.3909 6.5 65.9642 5.68 66.8176 5.04C67.6842 4.38667 68.7376 4.06 69.9776 4.06C71.0042 4.06 71.9176 4.28667 72.7176 4.74C73.5176 5.18 74.1376 5.82 74.5776 6.66C75.0176 7.48667 75.2376 8.46667 75.2376 9.6C75.2376 10.7333 75.0176 11.72 74.5776 12.56C74.1376 13.3867 73.5176 14.0267 72.7176 14.48C71.9176 14.92 71.0042 15.14 69.9776 15.14C68.7376 15.14 67.6842 14.82 66.8176 14.18C65.9642 13.5267 65.3909 12.7 65.0976 11.7V20.08H64.7176V4.2H65.0976V7.5ZM74.8376 9.6C74.8376 8.53333 74.6376 7.61333 74.2376 6.84C73.8376 6.05333 73.2709 5.45333 72.5376 5.04C71.8176 4.62667 70.9642 4.42 69.9776 4.42C69.0442 4.42 68.2042 4.64 67.4576 5.08C66.7242 5.50667 66.1442 6.11333 65.7176 6.9C65.3042 7.67333 65.0976 8.57333 65.0976 9.6C65.0976 10.6267 65.3042 11.5333 65.7176 12.32C66.1442 13.0933 66.7242 13.7 67.4576 14.14C68.2042 14.5667 69.0442 14.78 69.9776 14.78C70.9642 14.78 71.8176 14.5733 72.5376 14.16C73.2709 13.7467 73.8376 13.1533 74.2376 12.38C74.6376 11.5933 74.8376 10.6667 74.8376 9.6ZM78.5155 7.5C78.8089 6.5 79.3822 5.68 80.2355 5.04C81.1022 4.38667 82.1555 4.06 83.3955 4.06C84.4222 4.06 85.3355 4.28667 86.1355 4.74C86.9355 5.18 87.5555 5.82 87.9955 6.66C88.4355 7.48667 88.6555 8.46667 88.6555 9.6C88.6555 10.7333 88.4355 11.72 87.9955 12.56C87.5555 13.3867 86.9355 14.0267 86.1355 14.48C85.3355 14.92 84.4222 15.14 83.3955 15.14C82.1555 15.14 81.1022 14.82 80.2355 14.18C79.3822 13.5267 78.8089 12.7 78.5155 11.7V20.08H78.1355V4.2H78.5155V7.5ZM88.2555 9.6C88.2555 8.53333 88.0555 7.61333 87.6555 6.84C87.2555 6.05333 86.6889 5.45333 85.9555 5.04C85.2355 4.62667 84.3822 4.42 83.3955 4.42C82.4622 4.42 81.6222 4.64 80.8755 5.08C80.1422 5.50667 79.5622 6.11333 79.1355 6.9C78.7222 7.67333 78.5155 8.57333 78.5155 9.6C78.5155 10.6267 78.7222 11.5333 79.1355 12.32C79.5622 13.0933 80.1422 13.7 80.8755 14.14C81.6222 14.5667 82.4622 14.78 83.3955 14.78C84.3822 14.78 85.2355 14.5733 85.9555 14.16C86.6889 13.7467 87.2555 13.1533 87.6555 12.38C88.0555 11.5933 88.2555 10.6667 88.2555 9.6Z" fill="#1E71FF"/>
</svg>
