<svg width="160" height="29" viewBox="0 0 160 29" fill="none" xmlns="http://www.w3.org/2000/svg">
<g clip-path="url(#clip0_2639:0)">
<path d="M0.0729847 11.1911C0.256277 10.6191 0.759159 10.2129 1.35411 10.1589L9.43568 9.41866L12.6314 1.87376C12.867 1.32082 13.4036 0.962891 13.9999 0.962891C14.5961 0.962891 15.1327 1.32082 15.3684 1.87505L18.564 9.41866L26.6469 10.1589C27.2408 10.2142 27.7424 10.6191 27.9267 11.1911C28.1111 11.763 27.9408 12.3902 27.4916 12.7857L21.3829 18.1897L23.1842 26.1936C23.316 26.7821 23.0895 27.3904 22.6055 27.7434C22.3453 27.933 22.0408 28.0295 21.7339 28.0295C21.4692 28.0295 21.2066 27.9576 20.971 27.8153L13.9999 23.6127L7.03129 27.8153C6.52136 28.1248 5.87855 28.0966 5.39554 27.7434C4.91124 27.3893 4.68501 26.7808 4.81682 26.1936L6.61814 18.1897L0.509428 12.7867C0.0601673 12.3902 -0.111378 11.764 0.0729847 11.1911Z" fill="#FFC107"/>
</g>
<g clip-path="url(#clip1_2639:0)">
<path d="M33.073 11.1911C33.2563 10.6191 33.7592 10.2129 34.3541 10.1589L42.4357 9.41866L45.6314 1.87376C45.867 1.32082 46.4036 0.962891 46.9999 0.962891C47.5961 0.962891 48.1327 1.32082 48.3684 1.87505L51.564 9.41866L59.6469 10.1589C60.2408 10.2142 60.7424 10.6191 60.9267 11.1911C61.1111 11.763 60.9408 12.3902 60.4916 12.7857L54.3829 18.1897L56.1842 26.1936C56.316 26.7821 56.0895 27.3904 55.6055 27.7434C55.3453 27.933 55.0408 28.0295 54.7339 28.0295C54.4692 28.0295 54.2066 27.9576 53.971 27.8153L46.9999 23.6127L40.0313 27.8153C39.5214 28.1248 38.8786 28.0966 38.3955 27.7434C37.9112 27.3893 37.685 26.7808 37.8168 26.1936L39.6181 18.1897L33.5094 12.7867C33.0602 12.3902 32.8886 11.764 33.073 11.1911Z" fill="#FFC107"/>
</g>
<g clip-path="url(#clip2_2639:0)">
<path d="M66.073 11.1911C66.2563 10.6191 66.7592 10.2129 67.3541 10.1589L75.4357 9.41866L78.6314 1.87376C78.867 1.32082 79.4036 0.962891 79.9999 0.962891C80.5961 0.962891 81.1327 1.32082 81.3684 1.87505L84.564 9.41866L92.6469 10.1589C93.2408 10.2142 93.7424 10.6191 93.9267 11.1911C94.1111 11.763 93.9408 12.3902 93.4916 12.7857L87.3829 18.1897L89.1842 26.1936C89.316 26.7821 89.0895 27.3904 88.6055 27.7434C88.3453 27.933 88.0408 28.0295 87.7339 28.0295C87.4692 28.0295 87.2066 27.9576 86.971 27.8153L79.9999 23.6127L73.0313 27.8153C72.5214 28.1248 71.8786 28.0966 71.3955 27.7434C70.9112 27.3893 70.685 26.7808 70.8168 26.1936L72.6181 18.1897L66.5094 12.7867C66.0602 12.3902 65.8886 11.764 66.073 11.1911Z" fill="#FFC107"/>
</g>
<g clip-path="url(#clip3_2639:0)">
<path d="M99.073 11.1911C99.2563 10.6191 99.7592 10.2129 100.354 10.1589L108.436 9.41866L111.631 1.87376C111.867 1.32082 112.404 0.962891 113 0.962891C113.596 0.962891 114.133 1.32082 114.368 1.87505L117.564 9.41866L125.647 10.1589C126.241 10.2142 126.742 10.6191 126.927 11.1911C127.111 11.763 126.941 12.3902 126.492 12.7857L120.383 18.1897L122.184 26.1936C122.316 26.7821 122.09 27.3904 121.605 27.7434C121.345 27.933 121.041 28.0295 120.734 28.0295C120.469 28.0295 120.207 27.9576 119.971 27.8153L113 23.6127L106.031 27.8153C105.521 28.1248 104.879 28.0966 104.396 27.7434C103.911 27.3893 103.685 26.7808 103.817 26.1936L105.618 18.1897L99.5094 12.7867C99.0602 12.3902 98.8886 11.764 99.073 11.1911Z" fill="#FFC107"/>
</g>
<g clip-path="url(#clip4_2639:0)">
<path d="M132.073 11.1911C132.256 10.6191 132.759 10.2129 133.354 10.1589L141.436 9.41866L144.631 1.87376C144.867 1.32082 145.404 0.962891 146 0.962891C146.596 0.962891 147.133 1.32082 147.368 1.87505L150.564 9.41866L158.647 10.1589C159.241 10.2142 159.742 10.6191 159.927 11.1911C160.111 11.763 159.941 12.3902 159.492 12.7857L153.383 18.1897L155.184 26.1936C155.316 26.7821 155.09 27.3904 154.605 27.7434C154.345 27.933 154.041 28.0295 153.734 28.0295C153.469 28.0295 153.207 27.9576 152.971 27.8153L146 23.6127L139.031 27.8153C138.521 28.1248 137.879 28.0966 137.396 27.7434C136.911 27.3893 136.685 26.7808 136.817 26.1936L138.618 18.1897L132.509 12.7867C132.06 12.3902 131.889 11.764 132.073 11.1911Z" fill="#FFC107"/>
</g>
<defs>
<clipPath id="clip0_2639:0">
<rect width="28" height="28.2438" fill="white" transform="matrix(-1 0 0 1 28 0.362061)"/>
</clipPath>
<clipPath id="clip1_2639:0">
<rect width="28" height="28.2438" fill="white" transform="matrix(-1 0 0 1 61 0.362061)"/>
</clipPath>
<clipPath id="clip2_2639:0">
<rect width="28" height="28.2438" fill="white" transform="matrix(-1 0 0 1 94 0.362061)"/>
</clipPath>
<clipPath id="clip3_2639:0">
<rect width="28" height="28.2438" fill="white" transform="matrix(-1 0 0 1 127 0.362061)"/>
</clipPath>
<clipPath id="clip4_2639:0">
<rect width="28" height="28.2438" fill="white" transform="matrix(-1 0 0 1 160 0.362061)"/>
</clipPath>
</defs>
</svg>
