<svg width="89" height="21" viewBox="0 0 89 21" fill="none" xmlns="http://www.w3.org/2000/svg">
<path d="M0.0730469 8C0.0730469 6.62667 0.379714 5.4 0.993047 4.32C1.61971 3.22667 2.46638 2.38 3.53305 1.78C4.61305 1.16667 5.81971 0.86 7.15305 0.86C8.71305 0.86 10.0797 1.26 11.253 2.06C12.4264 2.86 13.2464 3.96667 13.713 5.38H10.493C10.173 4.71333 9.71971 4.21333 9.13305 3.88C8.55971 3.54667 7.89305 3.38 7.13305 3.38C6.31971 3.38 5.59305 3.57333 4.95305 3.96C4.32638 4.33333 3.83305 4.86667 3.47305 5.56C3.12638 6.25333 2.95305 7.06667 2.95305 8C2.95305 8.92 3.12638 9.73333 3.47305 10.44C3.83305 11.1333 4.32638 11.6733 4.95305 12.06C5.59305 12.4333 6.31971 12.62 7.13305 12.62C7.89305 12.62 8.55971 12.4533 9.13305 12.12C9.71971 11.7733 10.173 11.2667 10.493 10.6H13.713C13.2464 12.0267 12.4264 13.14 11.253 13.94C10.093 14.7267 8.72638 15.12 7.15305 15.12C5.81971 15.12 4.61305 14.82 3.53305 14.22C2.46638 13.6067 1.61971 12.76 0.993047 11.68C0.379714 10.6 0.0730469 9.37333 0.0730469 8ZM22.3446 3.76C23.1846 3.76 23.9313 3.94667 24.5846 4.32C25.2379 4.68 25.7446 5.22 26.1046 5.94C26.4779 6.64667 26.6646 7.5 26.6646 8.5V15H23.8646V8.88C23.8646 8 23.6446 7.32667 23.2046 6.86C22.7646 6.38 22.1646 6.14 21.4046 6.14C20.6313 6.14 20.0179 6.38 19.5646 6.86C19.1246 7.32667 18.9046 8 18.9046 8.88V15H16.1046V0.2H18.9046V5.3C19.2646 4.82 19.7446 4.44667 20.3446 4.18C20.9446 3.9 21.6113 3.76 22.3446 3.76ZM28.6073 9.42C28.6073 8.3 28.8273 7.30667 29.2673 6.44C29.7206 5.57333 30.3273 4.90667 31.0873 4.44C31.8606 3.97333 32.7206 3.74 33.6673 3.74C34.4939 3.74 35.2139 3.90667 35.8273 4.24C36.4539 4.57333 36.9539 4.99333 37.3273 5.5V3.92H40.1473V15H37.3273V13.38C36.9673 13.9 36.4673 14.3333 35.8273 14.68C35.2006 15.0133 34.4739 15.18 33.6473 15.18C32.7139 15.18 31.8606 14.94 31.0873 14.46C30.3273 13.98 29.7206 13.3067 29.2673 12.44C28.8273 11.56 28.6073 10.5533 28.6073 9.42ZM37.3273 9.46C37.3273 8.78 37.1939 8.2 36.9273 7.72C36.6606 7.22667 36.3006 6.85333 35.8473 6.6C35.3939 6.33333 34.9073 6.2 34.3873 6.2C33.8673 6.2 33.3873 6.32667 32.9473 6.58C32.5073 6.83333 32.1473 7.20667 31.8673 7.7C31.6006 8.18 31.4673 8.75333 31.4673 9.42C31.4673 10.0867 31.6006 10.6733 31.8673 11.18C32.1473 11.6733 32.5073 12.0533 32.9473 12.32C33.4006 12.5867 33.8806 12.72 34.3873 12.72C34.9073 12.72 35.3939 12.5933 35.8473 12.34C36.3006 12.0733 36.6606 11.7 36.9273 11.22C37.1939 10.7267 37.3273 10.14 37.3273 9.46ZM46.142 6.22V11.58C46.142 11.9533 46.2286 12.2267 46.402 12.4C46.5886 12.56 46.8953 12.64 47.322 12.64H48.622V15H46.862C44.502 15 43.322 13.8533 43.322 11.56V6.22H42.002V3.92H43.322V1.18H46.142V3.92H48.622V6.22H46.142ZM50.3359 9.56C50.3359 8.44 50.5559 7.46 50.9959 6.62C51.4492 5.78 52.0692 5.13333 52.8559 4.68C53.6559 4.22667 54.5625 4 55.5759 4C56.7225 4 57.6959 4.28 58.4959 4.84C59.2959 5.4 59.8559 6.11333 60.1759 6.98V4.14H61.0759V15H60.1759V12.14C59.8559 13.02 59.2892 13.7467 58.4759 14.32C57.6759 14.88 56.7092 15.16 55.5759 15.16C54.5625 15.16 53.6559 14.9333 52.8559 14.48C52.0692 14.0133 51.4492 13.36 50.9959 12.52C50.5559 11.6667 50.3359 10.68 50.3359 9.56ZM60.1759 9.56C60.1759 8.61333 59.9759 7.78 59.5759 7.06C59.1892 6.32667 58.6559 5.76667 57.9759 5.38C57.2959 4.98 56.5359 4.78 55.6959 4.78C54.8159 4.78 54.0425 4.97333 53.3759 5.36C52.7092 5.73333 52.1892 6.28 51.8159 7C51.4425 7.72 51.2559 8.57333 51.2559 9.56C51.2559 10.5467 51.4425 11.4 51.8159 12.12C52.1892 12.84 52.7092 13.3933 53.3759 13.78C54.0559 14.1667 54.8292 14.36 55.6959 14.36C56.5359 14.36 57.2959 14.1667 57.9759 13.78C58.6692 13.38 59.2092 12.82 59.5959 12.1C59.9825 11.3667 60.1759 10.52 60.1759 9.56ZM65.2529 7C65.5596 6.12 66.1129 5.4 66.9129 4.84C67.7262 4.28 68.7062 4 69.8529 4C70.8662 4 71.7662 4.22667 72.5529 4.68C73.3529 5.13333 73.9729 5.78 74.4129 6.62C74.8662 7.46 75.0929 8.44 75.0929 9.56C75.0929 10.68 74.8662 11.6667 74.4129 12.52C73.9729 13.36 73.3529 14.0133 72.5529 14.48C71.7662 14.9333 70.8662 15.16 69.8529 15.16C68.7196 15.16 67.7462 14.88 66.9329 14.32C66.1329 13.7467 65.5729 13.0267 65.2529 12.16V20.12H64.3529V4.14H65.2529V7ZM74.1729 9.56C74.1729 8.57333 73.9862 7.72 73.6129 7C73.2396 6.28 72.7129 5.73333 72.0329 5.36C71.3662 4.97333 70.5929 4.78 69.7129 4.78C68.8729 4.78 68.1129 4.98 67.4329 5.38C66.7529 5.76667 66.2196 6.32667 65.8329 7.06C65.4462 7.78 65.2529 8.61333 65.2529 9.56C65.2529 10.52 65.4462 11.3667 65.8329 12.1C66.2196 12.82 66.7529 13.38 67.4329 13.78C68.1129 14.1667 68.8729 14.36 69.7129 14.36C70.5929 14.36 71.3662 14.1667 72.0329 13.78C72.7129 13.3933 73.2396 12.84 73.6129 12.12C73.9862 11.4 74.1729 10.5467 74.1729 9.56ZM78.7099 7C79.0166 6.12 79.5699 5.4 80.3699 4.84C81.1833 4.28 82.1633 4 83.3099 4C84.3233 4 85.2233 4.22667 86.0099 4.68C86.8099 5.13333 87.4299 5.78 87.8699 6.62C88.3233 7.46 88.5499 8.44 88.5499 9.56C88.5499 10.68 88.3233 11.6667 87.8699 12.52C87.4299 13.36 86.8099 14.0133 86.0099 14.48C85.2233 14.9333 84.3233 15.16 83.3099 15.16C82.1766 15.16 81.2033 14.88 80.3899 14.32C79.5899 13.7467 79.0299 13.0267 78.7099 12.16V20.12H77.8099V4.14H78.7099V7ZM87.6299 9.56C87.6299 8.57333 87.4433 7.72 87.0699 7C86.6966 6.28 86.1699 5.73333 85.4899 5.36C84.8233 4.97333 84.0499 4.78 83.1699 4.78C82.3299 4.78 81.5699 4.98 80.8899 5.38C80.2099 5.76667 79.6766 6.32667 79.2899 7.06C78.9033 7.78 78.7099 8.61333 78.7099 9.56C78.7099 10.52 78.9033 11.3667 79.2899 12.1C79.6766 12.82 80.2099 13.38 80.8899 13.78C81.5699 14.1667 82.3299 14.36 83.1699 14.36C84.0499 14.36 84.8233 14.1667 85.4899 13.78C86.1699 13.3933 86.6966 12.84 87.0699 12.12C87.4433 11.4 87.6299 10.5467 87.6299 9.56Z" fill="white"/>
</svg>
